<svg width="50" height="24" viewBox="0 0 50 24" fill="none" xmlns="http://www.w3.org/2000/svg">
<g clip-path="url(#clip0_1060_2190)">
<path d="M13.0865 6.40261H13.1245C13.2386 6.47929 13.2006 6.86268 13.0865 7.32274C14.1897 6.97769 15.8635 6.40261 16.5483 6.0959C16.7765 5.29079 16.5863 4.86907 16.6244 4.6007C17.0809 2.41539 17.3091 0.996862 16.3961 0.306766C13.543 -1.76352 9.35835 6.55597 1.29346 4.71571C2.09234 7.7828 8.82577 7.93616 13.0865 6.40261Z" fill="#BC8E4A"/>
<path d="M44.9275 15.7957C50.824 9.08639 44.433 5.17584 39.9821 8.43463C36.4442 11.2717 36.254 16.2174 37.0528 18.9394C32.5639 22.0449 31.803 20.2813 33.8573 16.6774C36.2159 12.5752 37.0528 7.43782 32.1454 7.05444C30.7759 6.93942 27.3521 7.74453 26.1728 9.16306C25.8685 9.54645 23.0534 7.97457 22.9393 10.3516C22.7491 14.8755 26.5913 20.9714 21.76 19.7829C18.184 18.3643 21.6078 13.5337 21.5698 9.85316C21.5698 8.54965 20.6187 7.82121 19.5155 7.5145C17.1189 6.70939 6.16277 10.1982 2.39661 14.1471C0.114095 16.4474 -0.989122 20.3196 1.06514 22.4666C2.77703 24.2685 5.89647 24.7286 9.24417 22.6583C11.9832 20.9714 13.7712 17.981 15.0265 12.1535C15.0646 11.9618 15.3689 11.31 15.1787 11.31C14.4179 11.31 11.6028 12.8436 11.4126 13.4187C11.4126 13.4187 10.918 15.1056 10.3474 15.9873C6.04864 22.6199 3.57591 18.9394 6.08668 15.604C8.67354 12.1535 16.8145 9.8915 16.8145 9.8915C21.3035 8.81802 15.8635 15.3739 15.445 18.4794C14.7602 23.8851 20.2003 24.1535 24.537 21.6998C24.9555 21.2781 25.4881 22.3132 26.9337 21.7765C28.0749 21.3548 27.4663 19.2078 26.7435 16.6774C24.8414 9.92984 29.7488 9.08639 31.0422 11.6551C32.2215 13.9937 28.2651 17.3675 29.3303 21.1247C30.6237 26.3004 42.7972 18.7861 44.9275 15.7957ZM40.6668 16.2174C40.4386 15.3739 40.4386 12.9969 41.5418 11.6934C42.4168 10.6583 43.5961 10.2749 43.7102 11.6551C43.8243 13.4187 41.5418 15.3356 40.6668 16.2174Z" fill="#4E4296"/>
<path d="M48.3894 16.524C47.8568 17.8275 44.6232 21.393 41.8842 19.8211C40.5527 20.7029 39.4495 21.2013 38.4224 21.4314C40.4005 23.77 47.2481 24.3068 49.4165 15.7956C49.6067 14.9905 48.8459 16.0639 48.3894 16.524Z" fill="#4E4296"/>
</g>
<defs>
<clipPath id="clip0_1060_2190">
<rect width="49.4545" height="24" fill="white"/>
</clipPath>
</defs>
</svg>
