<svg width="48" height="48" viewBox="0 0 48 48" fill="none" xmlns="http://www.w3.org/2000/svg">
<path fill-rule="evenodd" clip-rule="evenodd" d="M33.043 29.8536L36.1894 33L35.4823 33.7072L31.6288 29.8536L35.1288 26.3536L31.6288 22.8536L35.1288 19.3536L31.6288 15.8536L35.4823 12L36.1894 12.7072L33.043 15.8536L36.543 19.3536L33.043 22.8536L36.543 26.3536L33.043 29.8536Z" fill="#DE0F0F"/>
<path d="M13.3359 26.8535L13.9598 26.8141C18.6388 26.5186 23.2505 28.0461 26.8279 31.0764V31.0764C27.423 31.5805 28.3356 31.1575 28.3356 30.3776V15.1165C28.3356 14.4206 27.5213 14.0433 26.9904 14.493V14.493C23.2947 17.6235 18.5765 19.285 13.7348 19.161L13.3359 19.1508V26.8535Z" stroke="#DE0F0F" stroke-miterlimit="16"/>
<path d="M8.33594 21.3535C8.33594 20.2489 9.23137 19.3535 10.3359 19.3535H11.3359V26.3535H10.3359C9.23137 26.3535 8.33594 25.4581 8.33594 24.3535V21.3535Z" fill="#EFDA6D"/>
<path d="M16.8359 33.7285V31.1035L15.0859 33.7285H16.8359Z" fill="#EFDA6D"/>
<path d="M17.7109 31.1956V29.3535H13.3359V36.3535H15.3246V34.143C15.3246 32.3746 16.9155 31.4412 17.7109 31.1956Z" stroke="#DE0F0F"/>
</svg>
